<?xml version="1.0" encoding="iso-8859-1"?>
<!-- Generator: Adobe Illustrator 17.0.0, SVG Export Plug-In . SVG Version: 6.00 Build 0)  -->
<!DOCTYPE svg PUBLIC "-//W3C//DTD SVG 1.1//EN" "http://www.w3.org/Graphics/SVG/1.1/DTD/svg11.dtd">
<svg version="1.1" id="Layer_1" xmlns="http://www.w3.org/2000/svg" xmlns:xlink="http://www.w3.org/1999/xlink" x="0px" y="0px"
	 width="400px" height="317px" viewBox="0 0 400 317" style="enable-background:new 0 0 400 317;" xml:space="preserve">
<g>
	<defs>
		
			<rect id="XMLID_11_" x="278.022" y="124.746" transform="matrix(0.9944 0.1052 -0.1052 0.9944 15.7417 -33.4531)" width="93.794" height="15.436"/>
	</defs>
	<use xlink:href="#XMLID_11_"  style="overflow:visible;fill:#FFD927;"/>
	<clipPath id="XMLID_2_">
		<use xlink:href="#XMLID_11_"  style="overflow:visible;"/>
	</clipPath>
	
		<rect x="283.517" y="115.044" transform="matrix(0.9945 0.1052 -0.1052 0.9945 14.2775 -29.2542)" style="clip-path:url(#XMLID_2_);fill:#FFA927;" width="1.922" height="11.368"/>
	
		<rect x="288.104" y="115.529" transform="matrix(0.9945 0.1052 -0.1052 0.9945 14.3546 -29.7351)" style="clip-path:url(#XMLID_2_);fill:#FFA927;" width="1.922" height="11.368"/>
	
		<rect x="292.691" y="116.014" transform="matrix(0.9944 0.1052 -0.1052 0.9944 14.4369 -30.2257)" style="clip-path:url(#XMLID_2_);fill:#FFA927;" width="1.922" height="11.368"/>
	
		<rect x="297.081" y="116.489" transform="matrix(0.9944 0.1052 -0.1052 0.9944 14.7085 -30.6746)" style="clip-path:url(#XMLID_2_);fill:#FFA927;" width="1.922" height="15.116"/>
	
		<rect x="301.866" y="116.985" transform="matrix(0.9944 0.1052 -0.1052 0.9944 14.59 -31.1857)" style="clip-path:url(#XMLID_2_);fill:#FFA927;" width="1.922" height="11.368"/>
	
		<rect x="306.453" y="117.47" transform="matrix(0.9944 0.1052 -0.1052 0.9944 14.6659 -31.6646)" style="clip-path:url(#XMLID_2_);fill:#FFA927;" width="1.922" height="11.368"/>
	
		<rect x="311.04" y="117.956" transform="matrix(0.9944 0.1052 -0.1052 0.9944 14.7424 -32.1446)" style="clip-path:url(#XMLID_2_);fill:#FFA927;" width="1.922" height="11.368"/>
	
		<rect x="315.43" y="118.431" transform="matrix(0.9944 0.1052 -0.1052 0.9944 15.014 -32.5935)" style="clip-path:url(#XMLID_2_);fill:#FFA927;" width="1.922" height="15.117"/>
	
		<rect x="320.215" y="118.927" transform="matrix(0.9944 0.1052 -0.1052 0.9944 14.8962 -33.1058)" style="clip-path:url(#XMLID_2_);fill:#FFA927;" width="1.922" height="11.368"/>
	
		<rect x="324.802" y="119.412" transform="matrix(0.9944 0.1052 -0.1052 0.9944 14.9727 -33.5858)" style="clip-path:url(#XMLID_2_);fill:#FFA927;" width="1.922" height="11.368"/>
	
		<rect x="329.389" y="119.897" transform="matrix(0.9944 0.1052 -0.1052 0.9944 15.0493 -34.0659)" style="clip-path:url(#XMLID_2_);fill:#FFA927;" width="1.922" height="11.368"/>
	
		<rect x="333.779" y="120.372" transform="matrix(0.9944 0.1052 -0.1052 0.9944 15.3208 -34.5148)" style="clip-path:url(#XMLID_2_);fill:#FFA927;" width="1.922" height="15.117"/>
	
		<rect x="338.564" y="120.868" transform="matrix(0.9944 0.1052 -0.1052 0.9944 15.2017 -35.0246)" style="clip-path:url(#XMLID_2_);fill:#FFA927;" width="1.922" height="11.368"/>
	
		<rect x="343.151" y="121.353" transform="matrix(0.9944 0.1052 -0.1052 0.9944 15.2782 -35.5046)" style="clip-path:url(#XMLID_2_);fill:#FFA927;" width="1.922" height="11.368"/>
	
		<rect x="347.738" y="121.839" transform="matrix(0.9944 0.1052 -0.1052 0.9944 15.3554 -35.986)" style="clip-path:url(#XMLID_2_);fill:#FFA927;" width="1.922" height="11.368"/>
	
		<rect x="356.53" y="122.769" transform="matrix(0.9944 0.1052 -0.1052 0.9944 15.5022 -36.906)" style="clip-path:url(#XMLID_2_);fill:#FFA927;" width="1.922" height="11.368"/>
	
		<rect x="361.118" y="123.255" transform="matrix(0.9944 0.1052 -0.1052 0.9944 15.578 -37.3847)" style="clip-path:url(#XMLID_2_);fill:#FFA927;" width="1.922" height="11.368"/>
	
		<rect x="365.705" y="123.74" transform="matrix(0.9944 0.1052 -0.1052 0.9944 15.6546 -37.8647)" style="clip-path:url(#XMLID_2_);fill:#FFA927;" width="1.922" height="11.368"/>
	
		<rect x="352.128" y="122.314" transform="matrix(0.9944 0.1052 -0.1052 0.9944 15.627 -36.4349)" style="clip-path:url(#XMLID_2_);fill:#FFA927;" width="1.922" height="15.116"/>
</g>
<g>
	
		<rect x="63.453" y="47.137" transform="matrix(0.6437 -0.7652 0.7652 0.6437 -44.7114 91.1973)" style="fill:#E1DFE4;" width="24.274" height="92.964"/>
	
		<rect x="37.335" y="62.511" transform="matrix(0.6437 -0.7652 0.7652 0.6437 -36.553 60.9757)" style="fill:#0091FF;" width="19.753" height="14.471"/>
	
		<rect x="49.488" y="72.734" transform="matrix(0.6437 -0.7652 0.7652 0.6437 -40.0468 73.918)" style="fill:#0085D5;" width="19.753" height="14.471"/>
	
		<rect x="61.641" y="82.958" transform="matrix(0.6437 -0.7652 0.7652 0.6437 -43.5406 86.8603)" style="fill:#006BAF;" width="19.753" height="14.47"/>
	
		<rect x="73.794" y="93.181" transform="matrix(0.6437 -0.7652 0.7652 0.6437 -47.0344 99.8023)" style="fill:#00538A;" width="19.753" height="14.471"/>
	
		<rect x="85.947" y="103.405" transform="matrix(0.6437 -0.7652 0.7652 0.6437 -50.5283 112.7445)" style="fill:#00386C;" width="19.753" height="14.471"/>
</g>
<g>
	
		<rect x="82.569" y="30.83" transform="matrix(0.928 -0.3725 0.3725 0.928 -21.9821 40.8393)" style="fill:#E1DFE4;" width="24.274" height="92.964"/>
	
		<rect x="71.016" y="35.661" transform="matrix(0.928 -0.3725 0.3725 0.928 -10.1569 33.2175)" style="fill:#9D00C7;" width="19.753" height="14.471"/>
	
		<rect x="76.931" y="50.399" transform="matrix(0.928 -0.3725 0.3725 0.928 -15.221 36.4815)" style="fill:#9000AD;" width="19.753" height="14.471"/>
	
		<rect x="82.847" y="65.138" transform="matrix(0.928 -0.3725 0.3725 0.928 -20.2851 39.7455)" style="fill:#7C008F;" width="19.753" height="14.471"/>
	
		<rect x="88.763" y="79.876" transform="matrix(0.928 -0.3725 0.3725 0.928 -25.3492 43.0096)" style="fill:#5B0068;" width="19.753" height="14.471"/>
	
		<rect x="94.678" y="94.615" transform="matrix(0.928 -0.3725 0.3725 0.928 -30.4133 46.2736)" style="fill:#3F0045;" width="19.753" height="14.471"/>
</g>
<g>
	<g>
		<g>
			<g>
				<path style="fill:none;" d="M189.366,55.112c-10.824-8.946-26.851-7.423-35.797,3.401c-8.946,10.824-7.423,26.851,3.401,35.797
					s26.852,7.423,35.797-3.401C201.714,80.085,200.191,64.058,189.366,55.112z M186.076,85.379
					c-5.892,7.129-16.447,8.132-23.576,2.24c-7.129-5.892-8.132-16.447-2.24-23.576c5.892-7.129,16.447-8.132,23.576-2.24
					C190.965,67.695,191.968,78.251,186.076,85.379z"/>
				<circle style="fill:#E1DFE4;" cx="173.169" cy="74.712" r="9.151"/>
				<path style="fill:#E1DFE4;" d="M183.836,61.804c-7.129-5.892-17.684-4.889-23.576,2.24c-5.891,7.129-4.889,17.684,2.24,23.576
					c7.129,5.892,17.684,4.889,23.576-2.24C191.968,78.251,190.965,67.695,183.836,61.804z M184.42,84.01
					c-5.135,6.214-14.336,7.088-20.55,1.953c-6.214-5.135-7.088-14.336-1.953-20.55c5.135-6.214,14.336-7.088,20.55-1.953
					C188.681,68.596,189.555,77.796,184.42,84.01z"/>
				<path style="fill:#E1DFE4;" d="M209.387,77.241l7.879-2.787c-0.397-4.181-0.343-3.614-0.741-7.795l-8.263-1.253
					c-1.105-2.967-1.358-3.645-2.463-6.612l5.43-6.353c-2.435-3.423-2.104-2.958-4.539-6.38l-7.783,3.046
					c-2.441-2.017-2.998-2.478-5.439-4.495l1.526-8.217c-3.82-1.747-3.301-1.51-7.121-3.256l-5.217,6.53
					c-3.122-0.527-3.835-0.647-6.958-1.173l-2.787-7.879c-4.181,0.397-3.614,0.343-7.795,0.741l-1.253,8.263
					c-2.968,1.105-3.645,1.358-6.613,2.463l-6.353-5.43c-3.423,2.435-2.958,2.104-6.381,4.539l3.046,7.783
					c-2.017,2.441-2.478,2.998-4.495,5.439l-8.217-1.526c-1.747,3.82-1.509,3.301-3.256,7.121l6.53,5.217
					c-0.527,3.123-0.647,3.836-1.173,6.958l-7.879,2.787c0.397,4.181,0.343,3.614,0.741,7.795l8.263,1.253
					c1.105,2.967,1.358,3.645,2.463,6.612l-5.43,6.353c2.435,3.423,2.104,2.958,4.539,6.38l7.783-3.046
					c2.441,2.017,2.999,2.478,5.439,4.495l-1.526,8.217c3.82,1.747,3.301,1.509,7.121,3.256l5.217-6.53
					c3.122,0.527,3.836,0.647,6.958,1.174l2.787,7.879c4.181-0.397,3.614-0.343,7.795-0.741l1.253-8.263
					c2.967-1.105,3.645-1.357,6.612-2.463l6.353,5.43c3.423-2.435,2.958-2.104,6.381-4.539l-3.046-7.783
					c2.017-2.441,2.478-2.998,4.495-5.439l8.217,1.526c1.747-3.82,1.509-3.301,3.256-7.121l-6.53-5.217
					C208.74,81.077,208.86,80.364,209.387,77.241z M192.768,90.91c-8.946,10.824-24.973,12.347-35.797,3.401
					s-12.347-24.973-3.401-35.797c8.946-10.824,24.973-12.347,35.797-3.401C200.191,64.058,201.714,80.085,192.768,90.91z"/>
			</g>
		</g>
	</g>
	<g>
		<g>
			<circle style="fill:#FFE700;" cx="212.426" cy="107.156" r="6.424"/>
			<circle style="fill:#7000D7;" cx="133.911" cy="42.267" r="6.424"/>
		</g>
		<g>
			<circle style="fill:#FF0D67;" cx="140.724" cy="113.969" r="6.424"/>
			<circle style="fill:#17C4AA;" cx="205.613" cy="35.454" r="6.424"/>
		</g>
		<g>
			<circle style="fill:#11CF56;" cx="220.895" cy="56.936" r="6.424"/>
			<circle style="fill:#FF00C2;" cx="125.442" cy="92.487" r="6.424"/>
		</g>
		<g>
			<circle style="fill:#FFA927;" cx="190.944" cy="122.438" r="6.424"/>
			<circle style="fill:#0091FF;" cx="155.393" cy="26.985" r="6.424"/>
		</g>
		<g>
			<circle style="fill:#79FF3B;" cx="223.389" cy="83.181" r="6.424"/>
			<circle style="fill:#9D00C7;" cx="122.948" cy="66.242" r="6.424"/>
		</g>
		<g>
			<circle style="fill:#FF4727;" cx="164.7" cy="124.932" r="6.424"/>
			<circle style="fill:#00E4FF;" cx="181.638" cy="24.491" r="6.424"/>
		</g>
	</g>
</g>
<linearGradient id="SVGID_1_" gradientUnits="userSpaceOnUse" x1="267.3976" y1="2.4606" x2="158.9396" y2="246.2331">
	<stop  offset="0" style="stop-color:#422750"/>
	<stop  offset="1" style="stop-color:#56276C"/>
</linearGradient>
<path style="fill:url(#SVGID_1_);" d="M187.733,78.053c-22.353,7.887-46.271,10.684-68.522,18.855
	c-22.251,8.171-43.887,23.536-50.474,46.307c-4.29,14.829-0.676,32.641,11.61,41.989c16.805,12.787,41.429,5.778,61.174,13.264
	c4.752,1.802,9.307,4.564,12.225,8.725c4.925,7.022,4.286,16.333,5.231,24.858c2.052,18.49,14.092,36.626,31.955,41.823
	c17.266,5.023,36.3-2.881,48.89-15.719c12.591-12.838,19.866-29.88,25.952-46.8s11.364-34.366,20.956-49.576
	c8.743-13.863,20.965-25.513,35.231-33.582c10.522-5.951,22.321-10.126,31.03-18.51c16.773-16.148,16.861-44.631,4.577-64.409
	c-12.284-19.779-34.193-31.81-56.6-38.136c-13.609-3.842-48.617-11.71-56.239,5.627c-3.765,8.565-3.818,18.388-8.046,26.964
	c-4.399,8.923-11.224,16.42-19.046,22.481C208.687,69.149,198.383,74.295,187.733,78.053z"/>
<linearGradient id="SVGID_2_" gradientUnits="userSpaceOnUse" x1="203.066" y1="320.8523" x2="203.066" y2="274.4596">
	<stop  offset="0" style="stop-color:#A0F4E5"/>
	<stop  offset="1" style="stop-color:#61ACDF"/>
</linearGradient>
<path style="opacity:0.2;fill:url(#SVGID_2_);" d="M162.56,315.348c34.85,2.24,69.846,2.202,104.69-0.113
	c16.039-1.066,32.097-2.621,47.779-6.151c12.009-2.703,25.029-1.738,34.04-10.123c1.865-9.2-31.505-11.362-68.537-14.78
	c-55.17-5.091-110.799,1.637-166.203,1.357c-20.037-0.101-74.671,5.478-51.877,19.665c3.612,2.248,7.875,3.168,12.033,4.07
	c15.631,3.392,31.48,6.539,47.532,6.71C135.668,316.129,148.804,314.464,162.56,315.348z"/>
<g>
	<g>
		<g>
			<path style="fill:#FFFFFF;" d="M190.093,255.912c0,0,1.114,11.624,15.378,11.585c15.029-0.041,14.507-12.203,14.507-12.203
				L190.093,255.912z"/>
			<g>
				<defs>
					<path id="XMLID_4_" d="M184.825,235.71c0,0-1.718,14.218,1.103,19.711c2.821,5.493,33.906,6.408,38.112,0.229
						c4.205-6.179,1-19.561,1-19.561L184.825,235.71z"/>
				</defs>
				<use xlink:href="#XMLID_4_"  style="overflow:visible;fill:#B9B6C1;"/>
				<clipPath id="XMLID_12_">
					<use xlink:href="#XMLID_4_"  style="overflow:visible;"/>
				</clipPath>
				<path style="opacity:0.1;clip-path:url(#XMLID_12_);fill:#851556;" d="M175.736,249.709c13.317,5.992,28.52,7.706,42.837,4.828
					c7.597-1.527,14.88-4.292,22.123-7.044c-4.763,6.267-12.22,10.08-19.909,11.769c-7.689,1.688-15.79,2.576-23.639,1.976
					c-8.876-0.678-18.021-3.087-25.246-8.287"/>
				<path style="opacity:0.1;clip-path:url(#XMLID_12_);fill:#851556;" d="M175.736,239.037c13.317,5.992,28.52,7.706,42.837,4.828
					c7.597-1.527,14.88-4.292,22.123-7.044c-4.763,6.267-12.22,10.855-19.909,12.544c-7.689,1.689-15.79,1.801-23.639,1.201
					c-8.876-0.678-18.021-3.087-25.246-8.288"/>
				<path style="opacity:0.1;clip-path:url(#XMLID_12_);fill:#851556;" d="M218.08,218.629c-4.272,5.737-5.076,13.264-5.661,20.393
					c-0.689,8.403-1.273,16.939,0.407,25.201c0.18,0.882,0.396,1.786,0.922,2.517c1.484,2.064,4.658,1.853,6.989,0.84
					c6.829-2.97,10.616-10.404,12.333-17.65c2.844-12.007,1.388-24.985-4.046-36.063"/>
			</g>
			<g>
				<defs>
					<path id="XMLID_3_" d="M204.148,143.743c32.91-0.047,50.311,21.431,45.048,47.063c-4.81,23.424-24.157,26.674-24.157,45.282
						c-7.16,5.829-35.103,6.039-40.214-0.379c0-14.807-19.992-16.872-23.702-45.056
						C158.018,167.067,172.701,143.788,204.148,143.743z"/>
				</defs>
				<linearGradient id="XMLID_13_" gradientUnits="userSpaceOnUse" x1="205.4201" y1="134.3636" x2="205.4201" y2="227.8011">
					<stop  offset="0" style="stop-color:#FF952F"/>
					<stop  offset="1" style="stop-color:#FFD030"/>
				</linearGradient>
				<use xlink:href="#XMLID_3_"  style="overflow:visible;fill:url(#XMLID_13_);"/>
				<clipPath id="XMLID_14_">
					<use xlink:href="#XMLID_3_"  style="overflow:visible;"/>
				</clipPath>
				<ellipse style="opacity:0.2;clip-path:url(#XMLID_14_);fill:#A12345;" cx="204.171" cy="243.515" rx="26.932" ry="13.329"/>
				<linearGradient id="SVGID_3_" gradientUnits="userSpaceOnUse" x1="202.7396" y1="179.0467" x2="167.1034" y2="153.9981">
					<stop  offset="0" style="stop-color:#FF952F"/>
					<stop  offset="1" style="stop-color:#FFD030"/>
				</linearGradient>
				<path style="clip-path:url(#XMLID_14_);fill:url(#SVGID_3_);" d="M176.253,138.667c0.321-0.339-0.104-0.942-0.571-0.946
					c-0.467-0.003-0.854,0.343-1.185,0.672c-14.725,14.564-22.633,35.752-21.051,56.402c0.627,8.186,3.363,17.193,10.603,21.061
					c0.405,0.217,0.866,0.419,1.31,0.304c0.726-0.188,0.984-1.068,1.101-1.808c1.786-11.361-0.664-23.219,2.238-34.348
					c2.644-10.141,9.712-18.877,18.638-24.368c8.926-5.49,19.586-7.854,30.062-7.581c6.893,0.179,13.769,1.455,20.645,0.948
					c0.729-0.054,1.496-0.142,2.088-0.571c1.012-0.734,1.16-2.199,0.922-3.426c-0.882-4.543-5.4-7.371-9.689-9.11
					c-18.935-7.68-40.625-4.762-59.946,1.885"/>
				<path style="opacity:0.1;clip-path:url(#XMLID_14_);fill:#851556;" d="M239.351,146.602c5.618,13.353,8.522,32.279,3.357,47.515
					c-4.883,14.405-18.71,18.835-25.823,32.279c-4.446,8.402-5.142,18.929-5.411,28.431c-0.139,4.926,0.227,10.029,2.473,14.416
					s6.742,7.908,11.668,7.751c2.768-0.088,5.374-1.286,7.794-2.632c16.645-9.253,28.097-26.457,32.534-44.977
					c4.437-18.52,2.312-38.2-3.672-56.28c-2.561-7.74-6.072-15.591-12.518-20.582"/>
				<path style="clip-path:url(#XMLID_14_);fill:#FFFFFF;" d="M209.052,235.85c-0.004,0-0.007,0-0.011,0
					c-0.642-0.006-1.158-0.53-1.152-1.173c0.059-6.681,0.119-13.75,0.178-20.819c0.059-7.072,0.119-14.145,0.178-20.83
					c0.002-0.215,0.004-0.433,0.007-0.654c-1.952,0.154-4.068,0.194-6.433,0.122c0.305,13.833,0.171,27.845-0.401,41.661
					c-0.027,0.641-0.579,1.132-1.209,1.114c-0.641-0.027-1.139-0.568-1.113-1.209c0.572-13.821,0.705-27.837,0.396-41.673
					c-1.705-0.126-3.522-0.443-4.992-1.545c-1.114-0.835-1.879-2.214-1.998-3.6c-0.098-1.139,0.245-2.187,0.967-2.953
					c0.76-0.806,1.847-1.207,3.041-1.122c1.485,0.102,2.94,0.915,3.798,2.121c1.06,1.487,1.344,3.295,1.439,4.879
					c2.463,0.078,4.637,0.034,6.626-0.138c0.109-1.01,0.316-2.031,0.718-3.011c0.978-2.386,3.021-3.987,5.207-4.079
					c1.38-0.051,2.786,0.619,3.682,1.766c0.785,1.004,1.047,2.22,0.719,3.335c-0.488,1.658-2.043,2.812-4.623,3.432
					c-1.127,0.27-2.284,0.486-3.496,0.652c-0.006,0.309-0.009,0.617-0.011,0.925c-0.059,6.684-0.119,13.756-0.178,20.828
					c-0.059,7.069-0.119,14.138-0.178,20.82C210.208,235.336,209.688,235.85,209.052,235.85z M196.205,185.483
					c-0.331,0-0.74,0.079-1.044,0.402c-0.335,0.356-0.372,0.828-0.343,1.161c0.063,0.735,0.486,1.496,1.077,1.94
					c0.943,0.707,2.206,0.956,3.512,1.068c-0.099-1.328-0.337-2.496-0.991-3.415c-0.451-0.634-1.28-1.095-2.064-1.15
					C196.305,185.484,196.256,185.483,196.205,185.483z M214.462,185.262c-0.022,0-0.044,0-0.066,0.001
					c-1.457,0.061-2.634,1.369-3.154,2.637c-0.241,0.587-0.393,1.21-0.491,1.852c0.96-0.144,1.883-0.324,2.783-0.54
					c1.712-0.411,2.699-1.026,2.935-1.828c0.156-0.529-0.134-1.008-0.32-1.247C215.735,185.608,215.065,185.262,214.462,185.262z"/>
			</g>
		</g>
	</g>
	<path style="fill:#FFFFFF;" d="M167.502,171.407c-0.875,3.029-1.282,6.328-0.235,9.302c1.047,2.974,3.855,5.488,7.007,5.39
		c3.781-0.117,6.46-3.6,8.562-6.746c2.662-3.984,5.324-7.968,7.985-11.953c2.059-3.082,4.19-6.377,4.319-10.081
		c0.361-10.328-9.061-7.281-14.274-3.778C174.53,157.8,169.636,164.022,167.502,171.407z"/>
</g>
<g>
	<path style="fill:#3D2247;" d="M122.91,222.134c1.322,4.422,1.138,9.137,1.78,13.708c0.421,2.996,1.2,5.941,2.316,8.752
		c0.918,2.312,2.086,4.787,1.402,7.179c-3.591-0.512-7.259,0.619-10.857,0.153c-3.842-0.497-7.333-2.861-9.512-6.064
		c-2.18-3.203-3.098-7.177-2.901-11.046c0.229-4.495,1.97-8.945,5.064-12.215c1.575-1.665,3.594-3.058,5.876-3.275
		c1.749-0.167,3.486,0.367,5.133,0.981"/>
	<g>
		<g>
			<defs>
				<path id="XMLID_5_" d="M101.307,247.992c-1.195,0.945-12.084,18.005-11.958,21.205c0.125,3.2,11.958,17.326,11.958,17.326
					h32.098c0,0,9.966-12.968,10.702-17.326c0.736-4.359-10.702-19.706-10.702-19.706s-2.365-5.496-18.553-5.333
					C105.69,244.25,101.307,247.992,101.307,247.992z"/>
			</defs>
			<use xlink:href="#XMLID_5_"  style="overflow:visible;fill:#9BC5FF;"/>
			<clipPath id="XMLID_15_">
				<use xlink:href="#XMLID_5_"  style="overflow:visible;"/>
			</clipPath>
			<polygon style="clip-path:url(#XMLID_15_);fill:#FFFFFF;" points="104.691,259.161 104.691,273.013 99.991,268.437 			"/>
			<polygon style="clip-path:url(#XMLID_15_);fill:#FFFFFF;" points="129.427,259.038 129.427,273.013 134.745,268.19 			"/>
		</g>
		<path style="fill:#FFD62E;" d="M102.228,297.563c0,0-2.407,2.407-2.648,2.889c-0.241,0.481,1.083,2.245,1.685,2.206
			c0.602-0.039,7.703-1.002,9.628-2.807C112.82,298.044,102.228,297.563,102.228,297.563z"/>
		<path style="fill:#457D94;" d="M114.004,286.523c0,0-24.493-8.085-29.167-5.815c-4.673,2.271-6.148,11.725-0.467,15.401
			c2.645,1.711,12.19,4.315,28.798,4.315c16.609,0,34.116-4.299,36.722-6.555c2.606-2.256,0.816-9.833-2.128-10.636
			C144.818,282.43,114.004,286.523,114.004,286.523z"/>
		<path style="fill:#FFD62E;" d="M117.506,292.375l-1.867,8.712c0,0,6.534,0.778,7.623,0.622c0,0,6.129,2.045,6.394,1.597
			l0.451-0.975c0,0-4.3-5.646-5.413-6.119C123.581,295.739,117.506,292.375,117.506,292.375z"/>
	</g>
	<g>
		<defs>
			<path id="XMLID_6_" d="M98.615,270.275c-0.622,0.622,3.334,17.979,3.334,17.979h30.646c0,0,4.445-17.357,3.978-18.135
				C136.106,269.342,98.615,270.275,98.615,270.275z"/>
		</defs>
		<use xlink:href="#XMLID_6_"  style="overflow:visible;fill:#2B2345;"/>
		<clipPath id="XMLID_16_">
			<use xlink:href="#XMLID_6_"  style="overflow:visible;"/>
		</clipPath>
		<rect x="95.908" y="268.319" style="clip-path:url(#XMLID_16_);fill:#FFFFFF;" width="42.2" height="2.609"/>
		<circle style="clip-path:url(#XMLID_16_);fill:#FFFFFF;" cx="117.644" cy="278.792" r="2.47"/>
	</g>
	<path style="fill:#FFD0C4;" d="M107.771,239.041c1.035,0.848,2.661,2.452,3.903,2.948c3.075,1.229,9.776-0.018,11.06-0.336
		c3.091-0.766,3.374-7.385,2.138-12.624c-1.253-5.312-2.102-9.409-7.413-10.288c-4.973-0.823-11.55,2.768-13.354,7.618
		C102.343,231.092,104.183,236.101,107.771,239.041z"/>
	<path style="fill:#FFD0C4;" d="M112.507,240.127l-1.304,5.828c0,0-2.943,0.395-2.943,1.64c0,1.245,3.267,4.667,8.712,4.511
		c5.445-0.156,8.401-3.267,8.401-4.356c0-1.089-5.551-2.244-5.551-2.244l0.312-5.034"/>
	<path style="fill:#422750;" d="M118.014,222.137c0,0-1.24,9.232-9.504,13.664c0.34,1.555,2.441,18.203,4.403,22.209
		c-4.403,0.148-8.811-3.867-10.95-14.894c-2.14-11.028-2.151-20.554,5.358-24.344c10.761-5.43,17.288-1.245,18.175,8.608
		C123.065,226.192,118.014,222.137,118.014,222.137z"/>
	<path style="fill:#FFD0C4;" d="M107.912,232.009c-0.676,0.267-0.978,1.065-1.025,1.79c-0.122,1.913,2.272,4.92,3.88,2.544
		C111.954,234.59,110.263,231.081,107.912,232.009z"/>
	<path style="fill:#422750;" d="M119.358,218.603c0,0,1.74,9.515-5.407,15.495c3.499-5.787,3.932-13.38,3.932-13.38"/>
</g>
<g>
	<polyline style="fill:#422750;" points="299.302,186.865 276.33,208.252 285.278,210.395 301.914,198.297 	"/>
	<path style="fill:#FFD927;" d="M321.588,230.937l-0.668,14.156l2.747,44.084l-8.112-0.375l-8.679-47.654l-5.996-0.947
		l-8.521,13.886l2.585,32.905h-8.242c0,0-6.493-29.07-6.493-36.534c0-5.05,12.939-22.898,12.939-22.898
		S316.598,228.182,321.588,230.937z"/>
	<g>
		<defs>
			<path id="XMLID_7_" d="M329.283,189.39c0,0-6.76,38.229-7.696,41.546c-10.656,4.128-28.44-3.377-28.44-3.377
				s3.972-34.388,6.155-40.694c5.996-5.838,13.392-5.284,13.392-5.284S322.971,180.711,329.283,189.39z"/>
		</defs>
		<use xlink:href="#XMLID_7_"  style="overflow:visible;fill:#422750;"/>
		<clipPath id="XMLID_17_">
			<use xlink:href="#XMLID_7_"  style="overflow:visible;"/>
		</clipPath>
	</g>
	<g>
		<g>
			<defs>
				<path id="XMLID_8_" d="M336.724,228.38l-0.131,0.316c-0.932,2.241-3.503,3.302-5.744,2.371l-70.517-28.931l3.505-8.431
					l70.517,28.931C336.595,223.567,337.656,226.139,336.724,228.38z"/>
			</defs>
			<use xlink:href="#XMLID_8_"  style="overflow:visible;fill:#DAD8DE;"/>
			<clipPath id="XMLID_18_">
				<use xlink:href="#XMLID_8_"  style="overflow:visible;"/>
			</clipPath>
			<polygon style="clip-path:url(#XMLID_18_);fill:#D2D0D7;" points="345.827,233.841 338.32,239.166 248.763,201.937 
				251.621,195.062 			"/>
			
				<rect x="327.275" y="217.309" transform="matrix(0.3839 -0.9234 0.9234 0.3839 -4.1844 441.0233)" style="clip-path:url(#XMLID_18_);fill:#C4C2CB;" width="2.213" height="12.677"/>
		</g>
		<polygon style="fill:#E1DFE4;" points="260.332,202.136 253.777,194.366 263.837,193.704 		"/>
	</g>
	<path style="fill:#FFD0C4;" d="M321.757,218.392l-4.09,1.959c0,0-1.638,1.008-2.647,2.647c-0.63,0.252-3.148,0.016-4.285,0.126
		c0.213,1.09,5.646,4.273,7.647,3.607c2.002-0.666,7.062-4.535,7.062-4.535L321.757,218.392z"/>
	<path style="fill:#FFD0C4;" d="M315.006,175.38l0.125,7.743c0,0-6.667,6.968-9.8,5.431c-0.783-2.633,0.437-10.096,0.437-10.096
		s-7.643-1.153-8.27-3.66c-0.627-2.506,0.458-14.992,4.05-17.324c3.592-2.333,9.97-2.882,13.548,1.171
		C318.675,162.698,318.583,169.529,315.006,175.38z"/>
	<path style="fill:#DE86BD;" d="M301.427,157.55c0,0,6.946,0.68,7.972,1.592c1.026,0.912-1.995,3.72-1.791,6.269
		c0.326,4.07,6.143-1.764,6.269,0.081c0.412,6.069,0.108,9.45,1.129,9.888c4.448-3.307,6.272-12.773,4.562-16.194
		C317.857,155.764,303.48,155.155,301.427,157.55z"/>
	<path style="fill:#D157A3;" d="M301.427,157.55c0,0-4.44-0.645-2.729-5.549c7.983-1.14,24.244,2.255,24.244,2.255l-3.529,13.353
		c0,0-0.725-7.86-6.029-9.932C308.875,155.915,301.427,157.55,301.427,157.55z"/>
	<path style="fill:#FFD0C4;" d="M310.428,168.199c-0.447-0.501-0.478-1.245-0.399-1.912c0.088-0.736,0.289-1.476,0.717-2.081
		c0.428-0.605,1.109-1.061,1.85-1.088c0.5-0.018,0.994,0.157,1.415,0.427c0.468,0.301,0.862,0.729,1.071,1.244
		c0.258,0.634,0.222,1.35,0.103,2.025c-0.14,0.787-0.395,1.569-0.873,2.208c-0.478,0.64-1.202,1.125-1.999,1.188
		c-0.44,0.035-0.899-0.066-1.255-0.326"/>
	<path style="fill:#422750;" d="M328.721,188.804c0,0,13.703,11.742,15.395,18.259c1.298,4.998-19.797,16.652-19.797,16.652
		l-5.672-5.849l14.581-10.487c0,0-7.576-5.718-8.679-8.994C322.753,193.049,324.964,190.348,328.721,188.804z"/>
	<path style="fill:#FFD0C4;" d="M276.175,208.233c0,0,0.045,2.786,3.325,4.089c4.405,1.75,7.55-1.528,7.28-1.887
		c-0.27-0.359-0.899-0.629-0.899-0.629l-2.876,0.899c0,0,2.606-1.663,2.472-1.977c-0.135-0.315-0.899-1.303-1.438-1.168
		c-0.539,0.135-2.876,1.932-2.876,1.932s2.067-3.056,1.887-3.325c-0.18-0.27-1.303-0.989-1.798-0.674
		c-0.494,0.315-2.382,2.741-2.382,2.741s0.989-3.91,0.764-3.954c-0.225-0.045-1.528-0.494-1.932-0.135
		C277.299,204.503,276.175,208.233,276.175,208.233z"/>
	<path style="fill:#422750;" d="M312.636,282.519l3.039,9.327c0,0-6.885,2.773-6.106,7.854c7.991-0.872,17.931-2.406,17.931-2.406
		l-1.348-16.474L312.636,282.519z"/>
	<path style="fill:#422750;" d="M283.106,279.271l2.053,9.592c0,0-7.136,2.042-6.889,7.176c8.038-0.036,18.084-0.529,18.084-0.529
		l0.372-16.525L283.106,279.271z"/>
</g>
<path style="fill:#9BC5FF;" d="M300.263,54.671c-8.819,0-16.61,4.381-21.33,11.082c7.95,4.468,13.325,12.978,13.325,22.747
	c0,5.586-1.762,10.757-4.751,15c3.772,2.12,8.121,3.334,12.757,3.334c14.404,0,26.082-11.677,26.082-26.082
	S314.667,54.671,300.263,54.671z"/>
<path style="fill:#F7410F;" d="M274.181,80.753c0-5.586,1.762-10.757,4.751-15c-3.772-2.12-8.121-3.335-12.756-3.335
	c-14.404,0-26.082,11.677-26.082,26.082c0,14.404,11.677,26.082,26.082,26.082c8.819,0,16.61-4.381,21.33-11.082
	C279.556,99.031,274.181,90.522,274.181,80.753z"/>
<path style="opacity:0.6;fill:#9BC5FF;" d="M278.933,65.753c-2.99,4.244-4.751,9.415-4.751,15c0,9.769,5.375,18.279,13.325,22.747
	c2.99-4.244,4.751-9.415,4.751-15C292.258,78.73,286.883,70.221,278.933,65.753z"/>
<circle style="fill:#FFE727;" cx="230.393" cy="64.495" r="1.984"/>
<circle style="fill:#FFE727;" cx="107.879" cy="113.114" r="1.984"/>
<circle style="fill:#FFE727;" cx="250.424" cy="127.575" r="1.984"/>
<circle style="fill:#FFE727;" cx="139.818" cy="172.942" r="1.984"/>
<circle style="fill:none;stroke:#FFFFFF;stroke-miterlimit:10;" cx="273.923" cy="32.205" r="2.324"/>
<circle style="fill:none;stroke:#FFFFFF;stroke-miterlimit:10;" cx="131.378" cy="109.158" r="2.324"/>
<circle style="fill:none;stroke:#FFFFFF;stroke-miterlimit:10;" cx="229.249" cy="99.862" r="2.324"/>
<circle style="fill:#FFE727;" cx="327.248" cy="43.051" r="0.646"/>
<circle style="fill:#FFE727;" cx="302.587" cy="22.263" r="0.646"/>
<circle style="fill:#FFE727;" cx="114.464" cy="138.855" r="0.646"/>
<circle style="fill:#FFE727;" cx="165.723" cy="130.204" r="0.646"/>
<circle style="fill:#FFE727;" cx="347.907" cy="94.956" r="0.646"/>
<circle style="fill:#FFE727;" cx="156.943" cy="137.693" r="0.646"/>
<circle style="fill:none;stroke:#FFFFFF;stroke-miterlimit:10;" cx="292.903" cy="122.716" r="3.744"/>
<circle style="fill:none;stroke:#FFFFFF;stroke-miterlimit:10;" cx="82.701" cy="148.022" r="3.744"/>
<circle style="fill:#FFE727;" cx="303.233" cy="42.921" r="1.42"/>
<circle style="fill:#FFE727;" cx="349.715" cy="63.967" r="1.42"/>
<g>
	<circle style="fill:#FFFFFF;" cx="326.527" cy="82.681" r="1.42"/>
	<circle style="fill:#FFFFFF;" cx="324.591" cy="108.892" r="1.42"/>
	<circle style="fill:#FFFFFF;" cx="328.539" cy="56.737" r="1.42"/>
	<line style="fill:none;stroke:#FFFFFF;stroke-miterlimit:10;" x1="328.41" y1="57.124" x2="324.644" y2="109.204"/>
</g>
<g>
	<circle style="fill:#FFFFFF;" cx="249.498" cy="67.756" r="1.42"/>
	<circle style="fill:#FFFFFF;" cx="229.581" cy="84.905" r="1.42"/>
	<circle style="fill:#FFFFFF;" cx="269.28" cy="50.849" r="1.42"/>
	<line style="fill:none;stroke:#FFFFFF;stroke-miterlimit:10;" x1="268.914" y1="51.032" x2="229.398" y2="85.163"/>
</g>
<g>
	<g>
		<defs>
			<polygon id="XMLID_9_" points="179.088,96.151 158.542,101.875 147.22,116.078 153.866,124.08 169.906,115.556 			"/>
		</defs>
		<use xlink:href="#XMLID_9_"  style="overflow:visible;fill:#9BC5FF;"/>
		<clipPath id="XMLID_19_">
			<use xlink:href="#XMLID_9_"  style="overflow:visible;"/>
		</clipPath>
		
			<rect x="155.708" y="80.354" transform="matrix(0.639 0.7692 -0.7692 0.639 137.9176 -86.6769)" style="opacity:0.2;clip-path:url(#XMLID_19_);fill:#38396A;" width="11.174" height="46.461"/>
		
			<rect x="171.987" y="91.093" transform="matrix(0.639 0.7692 -0.7692 0.639 140.4323 -95.9496)" style="clip-path:url(#XMLID_19_);fill:#38396A;" width="0.901" height="21.088"/>
		<circle style="clip-path:url(#XMLID_19_);fill:#38396A;" cx="164.432" cy="108.384" r="2.552"/>
	</g>
	<g>
		<defs>
			
				<rect id="XMLID_10_" x="136.148" y="115.043" transform="matrix(0.6389 0.7693 -0.7693 0.6389 148.7764 -64.7474)" width="14.429" height="22.147"/>
		</defs>
		<use xlink:href="#XMLID_10_"  style="overflow:visible;fill:#17C4AA;"/>
		<clipPath id="XMLID_20_">
			<use xlink:href="#XMLID_10_"  style="overflow:visible;"/>
		</clipPath>
		
			<rect x="123.741" y="124.657" transform="matrix(0.6389 0.7692 -0.7692 0.6389 151.6983 -55.7711)" style="opacity:0.2;clip-path:url(#XMLID_20_);fill:#38396A;" width="23.042" height="18.12"/>
	</g>
</g>
<rect x="283.336" y="121.602" style="fill:none;stroke:#FFFFFF;stroke-miterlimit:10;" width="9.296" height="9.296"/>
<rect x="83.605" y="137.306" style="fill:none;stroke:#FFFFFF;stroke-miterlimit:10;" width="9.296" height="9.296"/>
<rect x="120.913" y="177.379" transform="matrix(0.8033 0.5956 -0.5956 0.8033 133.1032 -38.9763)" style="fill:#9BC5FF;" width="9.296" height="9.296"/>
<polygon style="fill:#FFFFFF;" points="265.188,148.43 271.977,154.82 266.715,139.487 256.664,152.205 "/>
<polygon style="fill:#FFFFFF;" points="110.666,167.165 119.903,165.908 104.675,160.352 108.238,176.166 "/>
<rect x="235.963" y="240.083" transform="matrix(0.9524 0.3048 -0.3048 0.9524 88.0564 -63.16)" style="fill:#FFD927;" width="20.659" height="20.659"/>
<rect x="145.064" y="223.039" transform="matrix(0.8748 -0.4844 0.4844 0.8748 -93.6009 104.4896)" style="fill:#17C4AA;" width="20.659" height="20.659"/>
<g>
	<polygon style="fill:#FFFFFF;" points="196.939,104.291 224.631,121.197 217.344,124.112 216.178,132.857 206.85,127.319 
		197.522,131.108 	"/>
	<polygon style="fill:#D2D0D7;" points="217.344,124.112 196.939,104.291 216.178,132.857 	"/>
	<polygon style="fill:#E1DFE4;" points="196.939,104.291 216.178,132.857 211.116,129.824 	"/>
</g>
<ellipse style="opacity:0.2;fill:#413C63;" cx="205.42" cy="294.054" rx="28.147" ry="3.874"/>
</svg>
